<?xml version="1.0" standalone="no"?>
<!DOCTYPE svg PUBLIC "-//W3C//DTD SVG 20010904//EN"
 "http://www.w3.org/TR/2001/REC-SVG-20010904/DTD/svg10.dtd">
<svg version="1.0" xmlns="http://www.w3.org/2000/svg"
 width="1024.000000pt" height="1024.000000pt" viewBox="0 0 1024.000000 1024.000000"
 preserveAspectRatio="xMidYMid meet">

<g transform="translate(0.000000,1024.000000) scale(0.100000,-0.100000)"
fill="#000000" stroke="none">
<path d="M4410 9448 c-260 -47 -487 -159 -663 -327 -104 -100 -163 -175 -231
-297 -113 -200 -159 -375 -159 -594 0 -269 70 -494 222 -710 78 -111 224 -249
331 -312 140 -82 217 -119 290 -138 54 -15 60 -18 40 -24 -14 -4 -47 -17 -73
-29 l-48 -21 -24 31 c-51 64 -198 98 -318 73 -43 -8 -74 -24 -120 -59 l-63
-48 -104 -5 c-142 -6 -192 -28 -222 -95 -43 -97 -61 -301 -62 -688 -1 -365 7
-484 46 -670 29 -143 99 -383 147 -503 73 -182 258 -540 342 -662 l39 -55 -26
-170 c-19 -123 -28 -226 -31 -372 -5 -185 -4 -208 16 -271 20 -68 121 -246
180 -320 17 -20 67 -84 113 -142 96 -122 404 -435 496 -503 84 -62 131 -76
177 -54 20 9 44 31 56 49 28 45 20 114 -30 270 -62 190 -81 281 -81 388 0 79
4 104 24 146 21 45 40 64 66 64 4 0 10 -12 13 -27 9 -43 40 -86 92 -129 47
-38 51 -39 124 -39 42 0 93 4 114 9 l37 8 0 -83 c0 -53 7 -108 19 -149 41
-141 163 -433 196 -470 39 -43 61 -28 147 94 13 17 20 12 98 -63 137 -132 177
-147 302 -111 45 13 48 13 89 -16 45 -31 201 -166 259 -224 103 -103 172 -142
228 -129 97 21 122 83 128 314 2 88 12 260 21 382 17 219 15 265 -13 337 -7
19 -7 19 16 3 14 -9 39 -17 57 -17 42 0 53 25 53 115 0 96 -36 196 -112 312
-95 144 -232 266 -365 325 -23 10 -43 22 -43 27 0 4 11 18 25 31 13 12 32 45
41 72 30 92 -2 181 -87 237 -27 18 -47 36 -44 41 3 5 31 18 63 30 72 28 148
23 266 -18 92 -32 174 -84 310 -197 137 -114 170 -124 235 -69 61 51 61 118
-3 308 -78 233 -189 456 -325 656 -60 87 -81 113 -164 198 -93 95 -198 148
-393 199 -120 30 -160 36 -291 40 l-152 5 -50 74 c-28 40 -52 78 -53 84 -2 6
22 20 52 29 128 42 298 130 382 200 109 90 183 199 225 328 21 64 25 98 26
193 0 132 -21 233 -79 364 -49 111 -66 191 -53 241 14 52 36 75 70 75 44 0
137 39 176 73 118 103 86 306 -62 397 -45 28 -166 38 -247 21 -226 -47 -410
-280 -411 -521 0 -108 20 -183 89 -337 76 -171 84 -196 84 -278 0 -64 -3 -77
-29 -113 -41 -56 -49 -58 -56 -15 -19 118 -40 206 -69 296 -37 112 -153 370
-208 463 -20 32 -59 97 -87 144 -45 76 -49 85 -33 94 50 27 203 159 256 222
172 202 296 531 296 785 0 252 -111 567 -275 778 -60 78 -188 199 -264 251
-145 97 -377 186 -551 210 -106 15 -277 10 -400 -12z m410 -83 c132 -21 218
-48 338 -107 269 -131 462 -346 580 -648 45 -115 66 -228 66 -365 1 -163 -21
-259 -99 -445 -67 -157 -83 -183 -177 -295 -60 -72 -213 -205 -235 -205 -8 0
-13 13 -13 35 0 28 11 46 56 97 57 63 91 121 113 191 14 43 22 45 62 16 38
-27 61 -21 71 19 11 42 -5 71 -43 79 -24 4 -29 10 -29 34 0 15 4 39 9 52 9 23
14 24 56 19 49 -5 65 4 65 39 0 13 -9 15 -47 12 -46 -4 -85 9 -71 22 4 4 34 9
68 12 66 6 79 18 60 54 -11 19 -18 21 -67 16 -37 -4 -55 -2 -57 6 -2 7 -24 77
-49 157 -25 80 -51 177 -58 215 -15 87 -72 290 -100 356 -12 27 -37 63 -57 80
-32 28 -40 31 -88 27 -68 -6 -141 -50 -251 -151 l-84 -78 -47 8 c-26 4 -109 8
-184 7 -124 0 -138 2 -144 18 -8 26 -147 144 -202 172 -88 44 -137 42 -191 -7
-48 -45 -109 -199 -151 -382 -12 -53 -33 -108 -50 -135 -36 -56 -66 -137 -85
-225 -7 -37 -16 -69 -18 -71 -2 -3 -36 1 -76 8 -53 9 -74 9 -82 1 -30 -30 12
-52 124 -68 61 -8 60 -21 -2 -30 -26 -3 -63 -16 -82 -27 -30 -18 -31 -21 -15
-30 10 -6 44 -8 76 -6 l58 4 11 -37 c17 -58 14 -65 -43 -97 -62 -35 -72 -53
-47 -83 l17 -21 52 26 c28 14 55 26 61 26 5 0 12 -15 15 -34 10 -54 97 -176
170 -242 97 -86 152 -119 234 -144 67 -20 78 -21 132 -9 l58 13 -135 63 c-74
34 -160 83 -191 108 -64 50 -142 141 -184 214 l-28 48 32 13 c80 29 98 40 98
59 0 27 -44 35 -102 17 -26 -7 -49 -11 -52 -8 -4 3 -6 25 -6 49 l0 43 70 0
c55 0 72 3 77 16 9 24 -9 34 -81 47 l-66 11 0 41 c1 86 32 175 119 335 17 32
33 82 39 121 11 76 81 258 118 306 l25 33 49 -27 c27 -15 77 -53 112 -85 62
-56 63 -57 42 -72 -23 -17 -22 -63 2 -73 7 -2 52 5 101 17 73 19 105 22 193
17 58 -3 128 -13 157 -21 l51 -16 89 87 c93 93 203 163 237 150 9 -4 28 -30
41 -59 25 -55 85 -285 85 -326 0 -13 22 -90 49 -171 28 -82 53 -176 57 -213
l7 -68 -47 0 c-30 0 -46 4 -47 13 0 6 -4 2 -9 -10 -9 -22 -15 -23 -103 -23
-99 0 -124 -10 -111 -44 5 -13 23 -16 100 -16 83 0 94 2 94 18 0 12 3 13 8 4
6 -9 20 -10 55 -3 l47 8 0 -31 c0 -17 -9 -46 -20 -64 -11 -18 -18 -37 -15 -42
8 -12 -18 -72 -38 -89 -15 -11 -17 -11 -17 2 0 27 -57 64 -137 91 -91 30 -106
32 -124 10 -11 -14 -10 -19 10 -35 12 -10 42 -24 64 -30 23 -6 62 -21 87 -34
25 -13 55 -26 68 -30 12 -4 22 -14 22 -25 0 -18 -61 -102 -95 -130 -21 -17
-65 -85 -65 -100 0 -5 18 -19 40 -30 22 -11 40 -24 40 -29 0 -14 -44 -39 -133
-78 -181 -78 -283 -100 -492 -109 l-150 -7 -130 38 c-241 69 -397 159 -551
317 -151 154 -254 328 -304 513 -28 101 -38 312 -21 440 45 331 298 681 611
844 100 52 256 105 355 120 44 7 87 14 95 16 44 9 217 3 300 -10z m1428 -1986
c47 -23 88 -75 98 -126 12 -62 -53 -153 -110 -153 -55 0 -119 -24 -151 -57
-86 -89 -85 -181 4 -401 70 -175 88 -267 72 -371 -34 -217 -133 -363 -325
-480 -61 -36 -245 -107 -305 -117 l-38 -6 -134 158 c-74 88 -148 177 -164 199
-45 63 -320 327 -427 412 -54 42 -98 82 -98 88 0 7 24 17 53 24 76 17 197 86
197 113 0 16 -5 19 -22 15 -178 -41 -287 -58 -407 -63 -75 -2 -174 -12 -221
-21 -70 -13 -95 -14 -141 -4 -78 16 -104 46 -103 114 1 80 38 135 128 194 84
54 137 65 426 88 107 9 235 25 285 36 89 21 266 84 336 120 l36 19 50 -78
c127 -197 275 -507 307 -642 44 -189 57 -258 59 -313 2 -48 6 -62 23 -73 18
-13 28 -9 104 44 66 45 90 68 114 112 28 49 31 64 31 140 0 99 -15 150 -85
295 -59 121 -80 196 -80 290 0 221 126 397 321 449 76 21 116 19 167 -5z
m-2330 -370 c27 -5 64 -23 83 -39 l34 -28 -20 -25 c-11 -14 -42 -52 -69 -86
-55 -68 -82 -83 -103 -55 -16 21 -17 78 -3 105 15 27 -5 25 -34 -4 -14 -14
-26 -42 -30 -70 -6 -38 -11 -47 -28 -47 -22 0 -73 49 -80 78 -15 54 48 142
118 167 48 17 69 18 132 4z m-366 -173 c4 -33 3 -36 -9 -20 -7 10 -13 24 -13
31 0 20 -20 16 -21 -4 0 -11 -3 -13 -6 -5 -2 6 -13 12 -24 12 -17 0 -24 -11
-20 -32 0 -5 -3 -8 -8 -8 -45 0 -47 -900 -2 -954 15 -18 -27 -36 -84 -36 -40
0 -45 3 -52 28 -4 15 -7 187 -7 382 0 493 19 613 100 640 19 7 40 10 47 7 7
-2 30 -2 52 2 22 4 41 4 42 1 1 -3 3 -22 5 -44z m28 -87 c0 -6 -4 -7 -10 -4
-5 3 -10 11 -10 16 0 6 5 7 10 4 6 -3 10 -11 10 -16z m1046 -311 c17 -18 72
-69 124 -113 321 -272 651 -668 896 -1076 149 -247 247 -465 339 -747 54 -170
55 -173 39 -205 -25 -48 -210 -233 -284 -283 -75 -51 -78 -50 -131 45 -44 78
-211 322 -275 403 -92 114 -229 163 -330 118 -100 -44 -145 -112 -152 -232 -5
-93 7 -122 107 -260 37 -51 93 -132 125 -179 31 -47 79 -113 107 -145 l49 -59
-92 -47 c-107 -55 -240 -100 -361 -124 l-86 -17 -43 33 c-242 187 -633 610
-842 912 -121 175 -251 426 -326 628 -74 200 -179 597 -165 621 5 7 58 19 110
25 98 10 325 96 505 191 217 115 470 317 590 472 30 39 58 71 61 71 3 0 19
-15 35 -32z m1456 -1172 c94 -23 219 -70 270 -102 46 -30 124 -106 159 -156
l22 -33 -39 37 c-22 21 -67 47 -104 61 -36 13 -83 34 -104 45 -30 16 -44 19
-58 11 -11 -6 -24 -8 -31 -5 -7 2 -4 5 6 5 9 1 17 5 17 10 0 12 -46 27 -122
40 -32 6 -95 21 -140 35 -79 24 -135 36 -168 38 -19 1 -40 17 -40 31 0 15 253
2 332 -17z m-17 -106 c-27 -12 -35 -12 -35 0 0 6 12 10 28 9 24 0 25 -1 7 -9z
m40 -17 c-34 -8 -42 -24 -10 -19 17 2 24 1 18 -1 -16 -5 -16 -11 -2 -52 8 -23
15 -29 22 -22 7 7 5 17 -8 31 -20 22 -15 36 10 27 17 -7 21 -62 5 -72 -6 -4
-8 -11 -4 -16 3 -5 9 -7 14 -4 4 3 6 -4 3 -16 -3 -11 -9 -17 -13 -12 -11 13
-90 142 -90 147 0 6 30 14 55 14 l20 0 -20 -5z m80 -3 c-3 -5 -14 -10 -23 -10
-15 0 -15 2 -2 10 20 13 33 13 25 0z m465 -495 c0 -5 -5 -3 -10 5 -5 8 -10 20
-10 25 0 6 5 3 10 -5 5 -8 10 -19 10 -25z m20 -100 c0 -18 17 -20 22 -4 2 7
22 -30 45 -82 64 -145 67 -176 14 -125 -15 14 -71 55 -126 91 -55 37 -92 65
-82 61 20 -6 21 -2 6 25 -9 17 -7 19 13 14 17 -4 30 0 42 14 22 25 66 28 66 6z
m-1502 -79 c15 -8 38 -26 52 -41 21 -23 22 -26 5 -17 -11 5 -39 8 -62 6 -78
-6 -177 -102 -134 -129 6 -3 29 -40 52 -83 23 -42 67 -111 98 -152 32 -41 72
-100 91 -130 19 -30 73 -107 120 -170 87 -115 104 -143 109 -179 0 -5 10 -11
20 -14 11 -2 21 -15 23 -28 2 -13 9 -23 16 -21 8 1 11 -2 7 -8 -4 -6 -1 -17 5
-25 7 -8 11 -15 8 -15 -8 0 -296 362 -414 520 -127 171 -201 286 -208 323 -12
64 37 145 104 170 28 10 81 7 108 -7z m-1258 -276 c10 -23 10 -58 1 -155 -21
-240 -9 -424 35 -542 24 -64 104 -199 178 -302 121 -165 168 -240 160 -253 -5
-7 -1 -9 9 -5 12 4 14 2 10 -10 -5 -12 -3 -14 7 -8 10 6 12 4 7 -7 -3 -9 0
-22 6 -29 7 -8 -3 0 -22 16 -66 59 -264 292 -330 390 -142 208 -157 262 -148
544 8 273 32 426 62 401 7 -6 18 -24 25 -40z m2209 -66 c43 -49 52 -85 29
-127 -22 -43 -115 -141 -207 -220 -74 -64 -97 -78 -110 -70 -17 10 -85 124
-95 158 -4 16 5 26 45 50 28 17 103 80 167 142 65 62 120 112 124 113 3 0 25
-21 47 -46z m-678 -117 c-10 -9 -11 -8 -5 6 3 10 9 15 12 12 3 -3 0 -11 -7
-18z m53 -223 c3 -9 4 -19 1 -24 -3 -4 2 -10 10 -14 11 -4 15 3 16 27 l1 32 9
-30 c5 -19 5 -31 -1 -33 -6 -2 -11 -13 -11 -25 -1 -15 -3 -17 -6 -6 -2 9 -14
22 -27 29 -14 7 -22 19 -21 29 2 9 4 19 4 24 2 13 19 7 25 -9z m708 -40 c21
-13 40 -24 44 -24 14 0 154 -103 182 -135 40 -44 117 -156 150 -219 17 -32 28
-71 30 -110 l5 -60 -24 17 c-13 9 -34 24 -45 33 -12 8 -38 18 -58 21 -34 5
-36 4 -36 -23 0 -16 11 -72 24 -124 36 -142 39 -173 26 -320 -6 -74 -15 -232
-19 -350 -9 -226 -17 -270 -54 -270 -11 0 -57 36 -103 79 -161 153 -332 281
-404 302 -36 11 -46 10 -88 -10 -45 -21 -51 -22 -84 -8 -19 8 -55 39 -79 68
-89 107 -145 159 -172 159 -23 0 -31 -9 -57 -60 -20 -40 -35 -58 -44 -54 -15
6 -47 73 -100 212 -52 136 -66 199 -66 300 l0 90 43 15 c23 9 80 32 127 51 47
20 94 34 105 32 12 -3 57 -45 100 -93 216 -239 256 -265 346 -222 74 34 104
78 104 150 -1 51 -9 75 -85 228 -50 102 -80 174 -75 179 46 38 127 103 160
127 22 16 46 35 54 42 16 16 43 10 93 -23z m-594 -39 c3 -2 -1 -13 -9 -22 -12
-16 -12 -17 2 -6 9 7 19 10 23 6 4 -4 4 1 1 12 -6 17 -4 17 14 -4 12 -13 21
-34 21 -48 0 -13 4 -22 9 -18 5 3 13 -5 17 -17 4 -13 22 -47 40 -76 34 -53 42
-86 24 -97 -17 -10 -33 5 -21 19 13 16 4 27 -15 19 -15 -6 -20 -33 -5 -33 5 0
11 -14 13 -31 l5 -31 -44 47 c-25 26 -42 53 -39 60 3 10 0 12 -11 8 -13 -5
-15 -2 -10 11 5 14 3 17 -8 12 -10 -4 -15 1 -15 14 0 11 -9 25 -20 32 -11 7
-20 17 -20 22 0 4 7 3 15 -4 12 -10 15 -10 15 4 0 9 -8 16 -20 16 -32 0 -41
33 -31 114 1 8 60 1 69 -9z m-258 -142 c55 -60 85 -101 79 -107 -10 -10 -251
-106 -309 -124 -108 -32 -150 -35 -188 -12 -35 21 -97 110 -85 120 5 3 68 26
142 51 74 24 171 62 215 85 45 22 84 41 87 42 4 1 30 -24 59 -55z m279 -146
l25 -32 -32 29 c-33 31 -37 36 -24 35 4 0 18 -14 31 -32z m297 -215 c-17 -16
-18 -16 -7 5 6 12 9 30 6 40 -3 10 0 8 6 -5 10 -19 10 -26 -5 -40z m-1446
-379 c1 -10 8 -36 16 -58 9 -22 16 -45 16 -52 1 -6 8 -9 15 -6 10 4 11 9 4 16
-6 6 -11 20 -11 31 0 13 3 17 10 10 9 -9 22 -94 14 -94 -2 0 -24 19 -49 43
-42 41 -44 45 -29 66 9 12 12 20 7 19 -9 -3 -13 5 -13 27 0 21 20 19 20 -2z
m-30 -39 c0 -8 -19 -13 -24 -6 -3 5 1 9 9 9 8 0 15 -2 15 -3z"/>
<path d="M4120 8449 c0 -5 -4 -7 -10 -4 -5 3 -10 -1 -10 -10 0 -13 4 -14 20
-5 11 6 18 15 15 21 -8 12 -15 12 -15 -2z"/>
<path d="M4200 8341 c-147 -45 -212 -193 -144 -329 38 -76 73 -97 160 -97 93
0 140 30 184 118 48 96 40 179 -23 245 -52 55 -122 79 -177 63z m28 -107 c13
-9 22 -26 22 -40 0 -31 -42 -74 -73 -74 -66 0 -64 98 3 123 23 8 24 8 48 -9z
m86 -166 c8 -14 6 -22 -11 -40 -18 -18 -24 -19 -37 -8 -16 13 -21 51 -9 64 12
12 45 2 57 -16z"/>
<path d="M4805 8316 c-59 -27 -82 -51 -101 -103 -55 -154 46 -313 200 -313 94
0 147 34 192 122 38 76 27 164 -32 244 -52 71 -167 93 -259 50z m76 -77 c31
-16 43 -57 24 -86 -40 -60 -115 -47 -115 21 0 37 24 64 68 75 2 1 12 -4 23
-10z m107 -161 c7 -7 12 -25 12 -41 0 -25 -3 -28 -27 -25 -20 2 -29 9 -31 26
-7 46 18 68 46 40z"/>
<path d="M4427 8033 c-17 -16 -4 -56 28 -92 19 -21 35 -47 35 -57 0 -49 -68
-114 -119 -114 -22 0 -51 35 -51 63 0 23 -26 33 -45 17 -36 -30 -2 -115 56
-143 46 -21 117 -6 159 33 l31 29 35 -34 c39 -39 87 -52 137 -36 77 26 128
134 77 161 -26 14 -37 7 -45 -30 -7 -30 -47 -70 -71 -70 -18 0 -60 47 -80 88
-15 32 -15 33 25 84 48 59 52 84 15 98 -28 11 -177 14 -187 3z"/>
<path d="M5273 6435 c-54 -27 -126 -93 -149 -137 -26 -51 -28 -109 -3 -148 25
-40 26 -39 55 64 19 68 65 120 138 155 58 29 112 24 161 -13 59 -45 82 -28 50
35 -38 72 -154 92 -252 44z"/>
<path d="M4350 5865 c-111 -39 -177 -80 -256 -160 -132 -133 -191 -295 -181
-499 8 -164 53 -276 159 -392 91 -99 201 -163 335 -195 111 -27 274 -22 366
10 215 75 360 239 418 471 18 71 21 102 16 185 -7 116 -17 154 -63 250 -70
148 -189 254 -354 316 -77 29 -97 32 -225 36 -131 3 -145 2 -215 -22z m245
-76 c15 -7 9 -8 -21 -4 -31 4 -45 1 -58 -13 -9 -10 -14 -21 -11 -24 3 -3 -14
-9 -37 -13 -35 -6 -39 -8 -23 -15 16 -6 13 -9 -20 -15 -22 -4 -46 -12 -53 -18
-7 -5 -15 -7 -19 -3 -3 3 -1 6 5 6 7 0 12 4 12 9 0 5 -10 7 -22 4 l-23 -5 24
21 c29 26 21 27 -29 1 -21 -11 -70 -51 -108 -88 -139 -137 -198 -332 -158
-517 3 -11 5 -28 5 -38 1 -11 5 -15 13 -11 8 5 9 2 5 -9 -4 -11 -1 -17 9 -17
11 0 13 -7 7 -27 -4 -16 -7 -36 -7 -45 -1 -46 -58 61 -75 140 -52 245 67 519
271 628 106 55 254 81 313 53z m182 -45 c-3 -3 -12 -4 -19 -1 -8 3 -5 6 6 6
11 1 17 -2 13 -5z m43 -14 c8 -5 11 -10 5 -10 -5 0 -17 5 -25 10 -8 5 -10 10
-5 10 6 0 17 -5 25 -10z m29 -31 c-22 -13 -31 -11 -17 5 7 8 17 12 22 9 4 -3
2 -9 -5 -14z m-536 -16 c-4 -11 -3 -14 5 -9 7 4 12 3 12 -2 0 -9 -30 -26 -35
-20 -4 5 14 48 19 48 3 0 2 -7 -1 -17z m370 -69 c66 -17 100 -37 160 -93 180
-168 109 -495 -132 -614 -60 -29 -73 -32 -156 -31 -120 1 -190 28 -260 98 -28
28 -61 72 -74 98 -42 89 -46 214 -10 327 20 64 88 140 154 173 114 59 208 71
318 42z m-468 -34 c-10 -11 -23 -20 -29 -20 -6 1 0 10 13 20 30 26 39 26 16 0z
m822 -237 c-3 -10 -5 -4 -5 12 0 17 2 24 5 18 2 -7 2 -21 0 -30z m4 -183 c-15
-134 -65 -219 -187 -315 -27 -21 -59 -50 -71 -64 -18 -20 -32 -25 -80 -28
-185 -10 -236 -11 -214 -5 20 6 17 9 -24 20 -26 7 -46 14 -44 16 2 3 39 0 82
-4 100 -12 173 2 259 47 81 43 183 146 222 224 26 55 54 165 57 229 l2 35 4
-32 c2 -18 0 -73 -6 -123z m-822 -255 c7 -11 -5 0 -28 25 -22 25 -41 49 -41
53 0 8 46 -44 69 -78z m151 -95 c8 -5 11 -10 5 -10 -5 0 -17 5 -25 10 -8 5
-10 10 -5 10 6 0 17 -5 25 -10z m220 -99 c27 -7 18 -9 -43 -7 -66 1 -75 3 -60
14 10 8 29 11 43 7 14 -3 41 -10 60 -14z"/>
<path d="M4466 5765 c-3 -8 -1 -15 4 -15 6 0 10 7 10 15 0 8 -2 15 -4 15 -2 0
-6 -7 -10 -15z"/>
<path d="M3505 5547 c-14 -11 -16 -21 -11 -43 10 -40 24 -54 52 -54 16 0 28 8
36 25 6 14 15 25 20 25 15 0 9 26 -10 43 -22 20 -62 22 -87 4z"/>
<path d="M3864 4635 c-7 -18 3 -35 21 -35 18 0 26 15 19 34 -8 20 -33 21 -40
1z"/>
<path d="M5560 3635 c0 -9 7 -18 15 -21 23 -9 45 3 39 21 -8 20 -54 20 -54 0z"/>
<path d="M5670 3506 c0 -8 4 -17 9 -20 5 -4 7 3 4 14 -6 23 -13 26 -13 6z"/>
<path d="M4466 2763 c-6 -14 -5 -15 5 -6 7 7 10 15 7 18 -3 3 -9 -2 -12 -12z"/>
<path d="M6043 9173 c-9 -16 -27 -38 -40 -51 -36 -36 -30 -71 23 -130 40 -44
52 -52 82 -52 30 0 43 8 84 52 33 36 48 61 48 80 0 29 -30 68 -52 68 -7 0 -21
14 -30 30 -15 26 -23 30 -57 30 -33 0 -44 -5 -58 -27z m80 -63 c10 -16 25 -30
33 -30 20 0 18 -9 -8 -30 -17 -13 -29 -15 -51 -9 -40 11 -42 15 -23 43 9 14
16 32 16 41 0 24 14 18 33 -15z"/>
<path d="M7781 9059 c-321 -39 -577 -222 -726 -517 -24 -48 -47 -99 -50 -115
-6 -22 -22 -34 -89 -65 -112 -53 -260 -145 -328 -204 -67 -57 -152 -180 -169
-241 -19 -71 -15 -156 11 -215 43 -100 190 -197 365 -241 104 -26 298 -45 402
-38 80 5 82 4 110 -25 32 -34 123 -87 203 -118 195 -77 454 -79 669 -5 235 80
473 278 551 459 16 38 28 50 79 76 334 168 557 381 586 557 10 62 -11 146 -48
196 -45 59 -144 122 -239 152 -95 30 -296 55 -423 52 l-90 -2 -83 70 c-204
176 -467 257 -731 224z m334 -109 c203 -54 383 -197 507 -403 51 -86 80 -164
104 -287 l14 -75 -32 -28 c-37 -31 -192 -109 -308 -155 -375 -148 -766 -227
-1120 -227 l-165 0 -27 81 c-48 144 -55 325 -17 489 14 59 82 201 136 282 108
165 316 297 530 338 103 19 272 13 378 -15z m643 -293 c-7 -7 -21 -16 -30 -20
-10 -3 -18 -11 -18 -17 0 -5 8 -10 18 -10 14 0 15 2 2 10 -12 8 -8 10 15 11
45 2 78 -2 95 -11 9 -5 -3 -7 -30 -4 -32 3 -23 -2 33 -15 43 -10 81 -22 85
-26 4 -4 -2 -5 -13 -2 -17 5 -99 16 -155 22 -8 1 -23 2 -32 3 -10 1 -24 16
-33 32 -14 27 -14 30 0 30 10 0 13 -5 9 -12 -4 -6 3 -4 17 5 29 21 57 24 37 4z
m286 -39 c-7 -11 -34 -10 -34 1 0 6 9 9 19 8 11 0 17 -5 15 -9z m-94 -8 c0 -5
-7 -10 -15 -10 -8 0 -15 5 -15 10 0 6 7 10 15 10 8 0 15 -4 15 -10z m55 -62
c25 -12 45 -26 45 -31 0 -5 -6 -5 -13 1 -7 6 -33 20 -57 31 -25 11 -39 20 -33
20 7 1 33 -9 58 -21z m-60 -94 c50 -26 65 -62 41 -98 -17 -26 -144 -136 -157
-136 -4 0 -10 26 -14 58 -3 31 -15 87 -26 124 -10 36 -19 69 -19 73 0 16 136
-1 175 -21z m164 -135 c-8 -5 -10 -9 -6 -9 5 0 -9 -17 -30 -37 -39 -39 -53
-76 -33 -88 7 -4 16 -3 22 3 5 5 18 7 28 5 17 -4 17 -7 5 -19 -7 -8 -26 -14
-41 -14 -15 0 -24 3 -21 7 8 8 -22 43 -37 43 -6 0 -5 -5 2 -12 19 -19 14 -24
-20 -24 -25 0 -33 -4 -32 -16 1 -11 -4 -14 -14 -10 -11 4 -14 1 -9 -11 4 -11
2 -14 -8 -10 -17 6 -117 -41 -108 -51 4 -3 4 -6 0 -6 -3 0 -8 4 -11 9 -4 5 14
20 38 34 25 14 83 55 131 92 91 71 119 111 132 187 l7 43 10 -53 c7 -43 6 -56
-5 -63z m-2149 -48 c0 -45 -16 -75 -54 -100 -107 -68 -203 -162 -218 -213 -12
-45 -8 -103 10 -133 22 -36 117 -88 199 -109 174 -45 553 -46 808 -2 366 64
716 177 982 318 73 39 103 47 103 27 0 -6 -6 -9 -14 -6 -7 3 -26 -4 -42 -15
-17 -12 -21 -17 -9 -13 47 16 50 16 31 1 -11 -9 -23 -16 -28 -16 -4 0 -5 -7
-2 -15 4 -9 0 -15 -10 -15 -8 0 -23 -8 -33 -19 -20 -20 -79 -39 -68 -21 3 5 0
10 -9 10 -8 0 -22 3 -32 7 -13 5 -15 3 -9 -7 5 -7 4 -11 -1 -7 -5 3 -18 -2
-29 -10 -20 -15 -20 -15 3 -10 12 3 22 1 22 -4 0 -9 -21 -13 -54 -9 -10 1 -38
-4 -61 -10 -46 -13 -58 -40 -17 -40 41 0 18 -11 -34 -16 -26 -2 -56 -11 -65
-20 -14 -12 -30 -15 -65 -11 -26 2 -41 1 -35 -3 14 -8 -8 -20 -38 -20 -28 0
-41 -19 -30 -48 13 -34 8 -35 -25 -7 -35 30 -40 31 -83 4 -29 -18 -38 -20 -57
-10 -26 14 -129 0 -183 -25 -19 -8 -44 -12 -60 -8 -17 3 -23 2 -16 -3 7 -5 9
-14 3 -23 -9 -14 -102 -17 -141 -5 -23 8 -26 -10 -3 -19 9 -3 31 -6 50 -6 56
0 39 -17 -24 -23 -74 -8 -99 -17 -80 -28 9 -6 2 -9 -19 -9 -18 0 -33 -4 -33
-10 0 -5 -4 -10 -10 -10 -5 0 -7 6 -4 13 3 8 -7 18 -23 25 -25 11 -26 11 -10
-2 12 -9 14 -16 7 -21 -5 -3 -8 -9 -6 -13 2 -4 -35 -7 -82 -6 -48 0 -68 -1
-44 -3 72 -7 46 -23 -38 -23 -65 0 -80 3 -80 15 0 13 -4 14 -20 5 -11 -6 -18
-15 -15 -21 16 -25 -356 26 -447 62 -19 8 -25 16 -20 27 5 15 3 15 -10 4 -11
-9 -18 -10 -23 -2 -3 5 -1 10 4 10 6 0 11 5 11 10 0 6 -7 6 -19 -1 -15 -10
-25 -7 -57 17 -86 64 -104 92 -104 164 0 131 121 273 330 390 41 23 82 48 90
56 16 16 40 19 40 5z m2220 1 c0 -5 -8 -17 -19 -26 -18 -16 -18 -16 -14 9 5
22 33 37 33 17z m-40 -82 c0 -5 -5 -10 -11 -10 -5 0 -7 5 -4 10 3 6 8 10 11
10 2 0 4 -4 4 -10z m40 6 c0 -3 -4 -8 -10 -11 -5 -3 -10 -1 -10 4 0 6 5 11 10
11 6 0 10 -2 10 -4z m-171 -40 c15 -18 96 -12 131 9 9 5 8 0 -4 -13 -10 -12
-23 -19 -27 -16 -5 3 -9 -2 -9 -10 0 -10 -6 -13 -17 -9 -11 5 -14 3 -8 -6 6
-10 3 -11 -14 -2 -15 9 -21 9 -21 1 0 -7 -6 -10 -12 -7 -7 2 -12 11 -10 21 2
10 -4 16 -18 16 -11 0 -20 7 -20 15 0 19 14 19 29 1z m-29 -42 c0 -8 9 -14 20
-14 22 0 27 -15 8 -26 -6 -4 -16 0 -23 9 -7 10 -17 17 -24 17 -13 0 -13 2 -5
24 7 18 24 12 24 -10z m-2021 -101 c1 -23 10 -81 21 -128 11 -47 20 -90 20
-94 0 -12 -104 16 -150 39 -94 48 -90 85 18 188 84 80 90 80 91 -5z m2046 32
c-39 -32 -55 -32 -18 0 15 13 33 24 38 24 6 0 -3 -11 -20 -24z m-180 -5 c-3
-5 -14 -10 -23 -9 -14 0 -13 2 3 9 27 11 27 11 20 0z m50 -50 c-3 -5 -11 -10
-16 -10 -6 0 -7 5 -4 10 3 6 11 10 16 10 6 0 7 -4 4 -10z m30 -10 c-3 -5 -12
-10 -18 -10 -7 0 -6 4 3 10 19 12 23 12 15 0z m-105 -20 c0 -5 -9 -10 -19 -10
-11 0 -23 5 -26 10 -4 6 5 10 19 10 14 0 26 -4 26 -10z m-375 -130 c-3 -5 -12
-10 -18 -10 -7 0 -6 4 3 10 19 12 23 12 15 0z m92 -31 c10 0 13 -3 6 -6 -17
-6 -83 16 -83 28 0 5 13 3 30 -6 16 -8 37 -15 47 -16z m-47 -19 c-8 -5 -19
-10 -25 -10 -5 0 -3 5 5 10 8 5 20 10 25 10 6 0 3 -5 -5 -10z m-243 -6 c-3 -3
-12 -4 -19 -1 -8 3 -5 6 6 6 11 1 17 -2 13 -5z m193 -10 c0 -2 -7 -4 -15 -4
-8 0 -15 4 -15 10 0 5 7 7 15 4 8 -4 15 -8 15 -10z m-503 -50 c-3 -3 -12 -4
-19 -1 -8 3 -5 6 6 6 11 1 17 -2 13 -5z m683 -9 c0 -27 -146 -169 -233 -228
-93 -62 -209 -116 -307 -143 -79 -21 -316 -24 -400 -5 -30 7 -95 31 -143 54
l-88 41 192 28 c215 31 333 55 494 99 181 50 419 128 450 149 37 23 35 23 35
5z m-701 -9 c-2 -2 -17 -6 -34 -10 -22 -5 -26 -4 -15 4 14 9 59 15 49 6z
m-299 -106 c20 -6 21 -8 5 -8 -11 0 -29 3 -40 8 -25 11 1 11 35 0z m-10 -20
c12 -8 10 -9 -7 -7 -12 2 -26 6 -29 10 -11 11 19 8 36 -3z m93 3 c-7 -2 -21
-2 -30 0 -10 3 -4 5 12 5 17 0 24 -2 18 -5z m-136 -20 c3 -7 -3 -9 -16 -6 -12
3 -21 10 -21 15 0 13 32 6 37 -9z m-52 -13 c4 -6 -7 -10 -27 -9 -31 1 -32 1
-8 9 14 4 26 8 27 9 1 1 5 -3 8 -9z m-78 -6 c-3 -3 -12 -4 -19 -1 -8 3 -5 6 6
6 11 1 17 -2 13 -5z"/>
<path d="M7810 8831 c-72 -22 -120 -63 -139 -120 -16 -50 -14 -80 13 -138 33
-70 88 -103 175 -103 90 0 143 33 176 112 28 70 9 165 -43 211 -43 39 -124 55
-182 38z m27 -70 c-1 -11 -12 -25 -25 -30 -18 -9 -22 -16 -17 -34 4 -15 3 -18
-3 -9 -7 10 -12 5 -22 -18 -12 -28 -11 -37 5 -66 10 -18 25 -34 34 -36 12 -3
13 -5 3 -11 -8 -5 -23 3 -42 22 -25 24 -30 38 -30 76 0 42 5 52 39 86 43 43
61 49 58 20z m-16 -114 c-10 -9 -11 -8 -5 6 3 10 9 15 12 12 3 -3 0 -11 -7
-18z"/>
<path d="M7400 8689 c-68 -56 -68 -57 7 -83 47 -16 59 -12 78 24 20 39 19 73
-4 94 -18 16 -22 15 -81 -35z"/>
<path d="M8212 8581 c-64 -41 -91 -130 -61 -208 35 -94 171 -155 237 -106 98
72 103 237 9 306 -41 31 -141 35 -185 8z m43 -75 c-30 -30 -43 -91 -25 -120
12 -19 12 -20 -3 -7 -27 22 -22 91 8 124 14 15 30 27 35 27 5 0 -2 -11 -15
-24z"/>
<path d="M7436 8425 c-89 -31 -136 -99 -136 -194 0 -85 29 -128 111 -169 90
-45 132 -50 188 -20 70 38 104 87 109 158 6 78 -16 137 -68 184 -60 54 -129
68 -204 41z m57 -61 c6 -7 -30 -44 -42 -44 -3 0 -17 -16 -30 -35 -19 -29 -23
-44 -18 -81 4 -42 21 -69 37 -59 4 2 7 -2 7 -10 0 -18 -7 -18 -27 -2 -53 41
-65 115 -29 173 27 45 83 76 102 58z"/>
<path d="M8580 8355 c-24 -29 8 -75 44 -62 22 9 20 54 -3 67 -25 13 -26 13
-41 -5z"/>
<path d="M7880 8343 c0 -22 32 -44 49 -33 22 13 8 45 -22 48 -21 3 -27 -1 -27
-15z"/>
<path d="M7947 8093 c-4 -3 -7 -16 -7 -29 0 -25 51 -54 97 -54 32 0 73 32 73
56 0 19 -28 30 -43 15 -16 -16 -53 -14 -71 4 -15 16 -38 20 -49 8z"/>
<path d="M7343 7978 c-68 -11 -81 -28 -45 -62 17 -15 22 -15 55 -1 60 25 73
20 85 -28 20 -78 61 -102 127 -73 l30 12 -47 12 c-44 11 -46 13 -58 62 -12 49
-48 92 -74 89 -6 -1 -39 -6 -73 -11z"/>
<path d="M6726 8054 c-9 -24 -7 -27 9 -10 17 17 19 26 6 26 -5 0 -12 -7 -15
-16z"/>
<path d="M8680 7989 c0 -5 5 -7 10 -4 6 3 10 8 10 11 0 2 -4 4 -10 4 -5 0 -10
-5 -10 -11z"/>
<path d="M8627 7964 c23 -17 33 -17 33 0 0 8 -10 14 -25 14 -23 0 -24 -2 -8
-14z"/>
<path d="M8326 7851 c-11 -4 -15 -10 -10 -13 5 -2 20 1 34 8 26 14 8 18 -24 5z"/>
<path d="M6625 7670 c-3 -6 1 -7 9 -4 18 7 21 14 7 14 -6 0 -13 -4 -16 -10z"/>
<path d="M6780 7619 c-21 -5 -22 -7 -8 -13 25 -11 59 -4 44 9 -6 6 -22 8 -36
4z"/>
<path d="M6888 7583 c6 -2 18 -2 25 0 6 3 1 5 -13 5 -14 0 -19 -2 -12 -5z"/>
<path d="M7415 7580 c-3 -5 1 -10 10 -10 9 0 13 5 10 10 -3 6 -8 10 -10 10 -2
0 -7 -4 -10 -10z"/>
<path d="M6871 7566 c2 -2 27 -6 54 -9 32 -4 43 -3 30 3 -19 8 -93 14 -84 6z"/>
<path d="M6988 7553 c7 -3 16 -2 19 1 4 3 -2 6 -13 5 -11 0 -14 -3 -6 -6z"/>
<path d="M2519 8794 c-12 -24 -12 -28 10 -45 26 -21 53 -13 71 21 16 29 2 50
-34 50 -25 0 -36 -6 -47 -26z"/>
<path d="M3036 8784 c-19 -18 -20 -28 -6 -55 15 -26 46 -24 65 5 31 47 -20 89
-59 50z"/>
<path d="M1776 8619 c-106 -25 -173 -138 -140 -235 13 -38 14 -52 4 -73 -7
-14 -47 -132 -90 -261 -43 -129 -130 -381 -192 -560 -63 -179 -123 -356 -133
-394 l-19 -69 30 -23 c16 -13 43 -31 60 -39 27 -13 32 -21 36 -60 6 -50 31
-85 59 -85 19 0 49 46 49 74 0 29 22 116 29 116 4 0 17 -18 30 -40 16 -30 29
-40 47 -40 39 0 61 32 79 117 27 123 59 156 84 87 14 -40 47 -60 85 -50 56 14
123 119 97 150 -12 14 -21 9 273 162 88 46 161 82 163 80 2 -2 -10 -25 -26
-52 -52 -81 -34 -134 45 -134 52 0 106 37 133 93 26 54 27 97 1 129 l-19 25
87 41 c48 23 134 59 191 80 155 58 211 112 211 204 0 111 -115 302 -276 458
-165 159 -338 244 -584 284 -113 19 -265 26 -314 15z m321 -90 c138 -23 215
-48 318 -104 111 -60 169 -105 247 -194 69 -77 177 -228 178 -246 0 -5 -13
-11 -30 -12 -47 -3 -70 -21 -92 -70 l-20 -45 -39 72 c-104 192 -270 341 -439
394 -94 30 -326 66 -426 66 -84 0 -100 11 -91 67 7 43 40 80 81 92 40 12 172
4 313 -20z m-117 -224 c266 -31 406 -110 549 -310 64 -89 155 -265 143 -276
-4 -4 -68 -35 -142 -69 -233 -107 -381 -180 -455 -225 -39 -24 -97 -55 -128
-69 -31 -14 -73 -37 -92 -52 -31 -23 -35 -32 -35 -71 0 -45 -14 -83 -30 -83
-5 0 -15 21 -22 48 -16 54 -23 55 -105 16 -54 -26 -67 -44 -108 -159 l-19 -50
-8 31 c-9 34 -49 67 -71 58 -31 -12 -59 -84 -66 -176 -1 -5 -5 -8 -11 -8 -5 0
-10 22 -10 48 0 27 -6 57 -14 67 -13 18 -15 18 -39 -11 -23 -25 -26 -27 -27
-9 0 61 57 250 149 495 28 74 70 198 94 275 l44 140 22 -43 c39 -76 141 -103
227 -62 95 47 133 173 79 266 -17 30 -39 51 -61 60 -43 18 -125 18 -169 0
l-35 -15 19 37 c10 20 26 62 36 92 10 30 20 58 22 63 7 12 121 8 263 -8z
m-181 -224 c9 -6 -2 -11 -34 -16 -51 -7 -95 -41 -95 -72 1 -10 5 -37 9 -60 9
-46 3 -53 -21 -25 -41 46 -28 130 26 163 32 20 91 25 115 10z m-10 -55 c-2 -2
-17 -6 -34 -10 -22 -5 -26 -4 -15 4 14 9 59 15 49 6z m61 -6 c0 -5 -10 -10
-22 -9 -22 0 -22 1 -3 9 11 5 21 9 23 9 1 1 2 -3 2 -9z m4 -36 c3 -8 2 -12 -4
-9 -6 3 -10 10 -10 16 0 14 7 11 14 -7z m1008 -81 c34 -30 16 -83 -47 -138
-36 -30 -43 -28 -73 15 -21 31 -21 35 -6 59 48 76 90 97 126 64z m-442 -426
c14 -25 13 -30 -5 -64 -19 -36 -67 -65 -82 -50 -3 4 4 18 16 31 15 16 25 42
29 71 5 50 18 54 42 12z"/>
<path d="M1863 8214 c-9 -23 13 -40 32 -24 20 17 19 27 -6 33 -13 3 -22 0 -26
-9z"/>
<path d="M1934 8205 c-8 -31 10 -55 41 -55 57 0 70 25 33 60 -31 29 -66 26
-74 -5z"/>
<path d="M2050 8169 c0 -24 23 -21 28 4 2 10 -3 17 -12 17 -10 0 -16 -9 -16
-21z"/>
<path d="M2155 8101 c-77 -34 -115 -106 -102 -188 20 -119 126 -190 244 -163
40 9 59 19 77 43 34 47 49 101 44 168 -4 51 -9 64 -39 95 -61 65 -144 82 -224
45z m30 -95 c-56 -58 -61 -86 -21 -128 27 -28 28 -30 6 -17 -14 9 -33 31 -44
48 -16 28 -17 35 -5 64 17 42 56 77 85 77 20 0 18 -4 -21 -44z m162 -58 c-3
-7 -5 -2 -5 12 0 14 2 19 5 13 2 -7 2 -19 0 -25z m-17 -73 c0 -2 -10 -9 -22
-15 -22 -11 -22 -10 -4 4 21 17 26 19 26 11z m-97 -42 c-7 -2 -19 -2 -25 0 -7
3 -2 5 12 5 14 0 19 -2 13 -5z"/>
<path d="M2460 7845 c-16 -19 -3 -72 21 -86 28 -15 39 -3 39 41 0 29 -5 42
-19 50 -25 13 -26 13 -41 -5z"/>
<path d="M1972 7818 c-19 -19 -14 -48 11 -57 41 -16 80 24 51 54 -18 18 -46
19 -62 3z"/>
<path d="M1582 7718 c-18 -18 -14 -52 9 -82 25 -31 35 -33 49 -5 14 24 6 61
-16 83 -19 19 -26 20 -42 4z"/>
<path d="M1830 7704 c-36 -15 -92 -59 -110 -90 -29 -45 -29 -128 -1 -182 32
-63 57 -75 148 -71 67 4 84 8 122 34 69 47 86 76 86 150 0 68 -15 99 -67 138
-27 20 -145 34 -178 21z m136 -90 c20 -20 34 -46 34 -60 0 -38 -14 -28 -29 20
-13 46 -37 65 -55 45 -8 -9 -7 -10 3 -4 9 5 12 4 7 -3 -3 -5 0 -13 6 -15 9 -4
10 -6 1 -6 -6 -1 -15 4 -18 9 -13 21 -56 10 -86 -22 -25 -28 -30 -40 -27 -75
2 -24 0 -43 -3 -43 -14 0 -28 28 -31 56 -5 72 52 134 126 134 31 0 45 -7 72
-36z m-16 -114 c0 -5 -5 -10 -11 -10 -5 0 -7 5 -4 10 3 6 8 10 11 10 2 0 4 -4
4 -10z m18 -20 c-7 -11 -17 -20 -22 -20 -5 0 -1 9 9 20 10 11 20 20 22 20 2 0
-2 -9 -9 -20z"/>
<path d="M2317 7674 c-29 -16 -28 -34 2 -34 17 0 51 29 51 43 0 11 -23 7 -53
-9z"/>
<path d="M2157 7653 c-24 -23 8 -63 51 -63 18 0 60 36 51 44 -26 22 -88 34
-102 19z"/>
<path d="M1504 7440 c-30 -12 -62 -56 -70 -95 -8 -44 20 -103 53 -111 52 -13
143 64 143 120 0 18 -12 40 -34 62 -34 34 -54 40 -92 24z"/>
<path d="M6401 8581 c-31 -31 -26 -72 10 -92 41 -21 87 33 66 79 -6 12 -14 22
-18 22 -4 0 -14 3 -22 6 -9 3 -25 -4 -36 -15z"/>
<path d="M2277 7042 c-40 -44 0 -99 49 -67 28 18 31 46 8 69 -20 21 -37 20
-57 -2z"/>
<path d="M8414 7032 c-18 -12 -25 -44 -13 -58 17 -20 57 -17 69 5 13 25 13 27
-6 45 -17 17 -33 20 -50 8z"/>
<path d="M1169 6909 c-11 -11 -19 -30 -17 -42 4 -31 48 -30 64 2 23 45 -12 75
-47 40z"/>
<path d="M8020 6831 c-15 -37 -7 -64 25 -81 22 -12 27 -11 45 5 29 26 34 53
16 80 -24 37 -70 34 -86 -4z"/>
<path d="M8793 6803 c-8 -3 -13 -25 -13 -57 0 -51 1 -53 25 -48 14 2 32 -1 40
-8 12 -10 16 -8 25 15 14 36 13 78 -2 93 -12 12 -52 15 -75 5z"/>
<path d="M1760 6765 c-20 -21 -22 -28 -12 -50 18 -38 60 -51 91 -27 35 26 38
49 10 78 -29 31 -59 31 -89 -1z"/>
<path d="M8948 6649 c-10 -5 -18 -18 -18 -27 0 -10 -7 -28 -16 -41 -21 -29 -7
-41 48 -41 29 0 41 6 53 24 19 29 11 72 -15 86 -23 12 -30 12 -52 -1z"/>
<path d="M8650 6630 c-41 -41 -20 -85 40 -84 48 2 71 17 52 36 -7 7 -12 25
-12 40 0 24 -4 28 -30 28 -17 0 -39 -9 -50 -20z"/>
<path d="M8855 6520 c-14 -16 -27 -20 -47 -16 -25 5 -28 2 -34 -31 -9 -47 12
-87 47 -91 42 -5 60 26 57 98 l-3 62 -20 -22z"/>
<path d="M1328 6281 c-45 -15 -96 -60 -117 -105 -24 -48 -27 -119 -7 -155 12
-22 11 -33 -11 -90 -14 -36 -47 -136 -73 -221 -27 -85 -60 -189 -74 -230 -135
-408 -242 -757 -248 -814 -3 -25 2 -30 31 -40 42 -15 67 -45 83 -99 13 -46 34
-77 53 -77 24 0 37 30 46 107 6 43 14 82 18 86 5 5 20 -12 35 -37 22 -38 32
-46 56 -46 48 0 59 18 80 122 9 44 18 63 43 84 l32 27 12 -32 c17 -40 52 -57
94 -45 41 12 67 47 78 108 8 44 22 65 45 66 4 0 6 -18 4 -40 -6 -67 43 -40 56
30 8 45 55 76 236 153 19 9 69 31 111 50 l77 35 -25 -49 c-31 -58 -26 -95 15
-110 94 -36 188 65 180 195 l-3 61 130 65 c72 36 158 77 192 92 72 33 104 75
111 147 9 95 -49 206 -214 409 -137 168 -332 281 -581 337 -78 18 -423 30
-465 16z m451 -91 c233 -47 395 -141 539 -310 73 -86 152 -194 152 -206 0 -5
-21 -16 -47 -24 -35 -11 -56 -26 -80 -58 l-32 -43 -22 43 c-31 62 -142 209
-192 254 -147 135 -378 203 -685 204 -120 0 -123 1 -133 24 -22 48 9 118 61
140 31 13 341 -4 439 -24z m-114 -224 c153 -23 324 -104 401 -189 59 -65 124
-158 177 -255 64 -118 71 -132 66 -136 -7 -5 -439 -231 -629 -328 -96 -49
-200 -103 -230 -121 l-55 -33 -6 -62 c-3 -34 -9 -65 -12 -68 -12 -13 -25 8
-31 51 -4 25 -11 45 -15 45 -27 0 -115 -35 -139 -55 -31 -26 -44 -52 -62 -124
l-11 -44 -25 37 c-14 20 -33 36 -43 36 -27 0 -66 -34 -85 -75 -20 -42 -28 -43
-46 -10 -7 14 -19 25 -27 25 -10 0 -12 10 -7 43 8 52 88 322 142 477 22 63 59
175 83 249 l42 135 21 -44 c29 -60 73 -85 152 -85 54 0 67 4 100 31 82 66 111
191 62 264 -47 68 -169 98 -232 57 -15 -10 -31 -17 -36 -15 -14 5 66 191 86
199 32 13 264 10 359 -5z m-286 -242 c17 -8 36 -25 42 -36 15 -27 6 -101 -16
-134 -20 -30 -32 -26 -15 6 8 14 8 20 1 16 -6 -4 -22 1 -36 10 -20 13 -23 20
-14 30 6 8 15 11 20 8 5 -3 9 5 9 18 0 16 -3 19 -9 10 -6 -10 -10 -9 -14 7 -3
14 0 21 9 21 8 0 14 9 14 20 0 22 -15 27 -23 8 -4 -10 -8 -10 -15 1 -8 11 -15
10 -40 -8 -40 -28 -55 -70 -36 -106 8 -15 14 -35 14 -43 0 -13 4 -11 16 6 9
14 26 22 44 22 24 0 27 -3 23 -21 -3 -12 0 -25 7 -29 20 -12 -26 -23 -65 -16
-46 9 -85 57 -85 103 0 38 30 96 58 113 25 14 75 12 111 -6z m1125 -130 c21
-55 -7 -119 -66 -150 -35 -18 -51 -14 -73 19 -15 23 -14 27 12 70 39 64 112
99 127 61z m-416 -446 c7 -7 12 -23 12 -36 0 -31 -62 -94 -84 -86 -23 9 -20
17 14 42 23 18 30 30 30 57 0 37 8 43 28 23z"/>
<path d="M1440 6159 c0 -5 5 -7 10 -4 6 3 10 8 10 11 0 2 -4 4 -10 4 -5 0 -10
-5 -10 -11z"/>
<path d="M1442 5868 c3 -25 34 -36 52 -18 8 8 6 15 -8 26 -29 21 -48 18 -44
-8z"/>
<path d="M1532 5881 c-23 -14 -10 -55 20 -65 48 -17 84 39 44 66 -15 10 -48
10 -64 -1z"/>
<path d="M1650 5831 c0 -9 24 -21 41 -21 5 0 9 7 9 15 0 9 -9 15 -25 15 -14 0
-25 -4 -25 -9z"/>
<path d="M1768 5785 c-142 -46 -166 -267 -38 -351 59 -39 139 -43 213 -10 48
21 61 32 77 68 12 26 20 65 20 98 0 147 -130 240 -272 195z m128 -76 c23 -14
34 -28 33 -42 -2 -22 -2 -22 -6 -1 -6 31 -43 45 -86 32 -47 -15 -100 -63 -93
-86 3 -9 8 -35 12 -57 7 -37 6 -39 -9 -26 -44 36 -37 129 13 174 37 33 88 36
136 6z m63 -94 l0 -20 -9 20 c-5 11 -9 27 -9 35 -1 13 0 13 9 0 5 -8 9 -24 9
-35z m-19 -10 c0 -5 -5 -3 -10 5 -5 8 -10 20 -10 25 0 6 5 3 10 -5 5 -8 10
-19 10 -25z m10 -24 c0 -5 -7 -14 -15 -21 -16 -14 -18 -10 -9 14 6 17 24 22
24 7z m6 -43 c-9 -12 -16 -17 -16 -11 0 7 5 15 10 18 6 3 11 16 11 28 1 17 2
18 6 5 2 -10 -3 -28 -11 -40z m-151 -38 c3 -6 -1 -7 -9 -4 -18 7 -21 14 -7 14
6 0 13 -4 16 -10z"/>
<path d="M2088 5493 c-26 -31 -28 -50 -4 -72 29 -27 44 -27 57 3 9 18 8 31 -2
52 -17 35 -31 39 -51 17z"/>
<path d="M1551 5476 c-15 -18 -5 -41 23 -54 28 -13 46 1 46 34 0 33 -47 47
-69 20z"/>
<path d="M1161 5354 c-13 -29 -4 -46 31 -65 26 -14 48 5 48 40 0 54 -57 72
-79 25z"/>
<path d="M1928 5373 c-13 -3 -18 -14 -18 -36 0 -56 12 -63 61 -36 55 30 61 53
18 68 -18 6 -35 10 -38 10 -3 -1 -14 -3 -23 -6z"/>
<path d="M1437 5356 c-128 -35 -190 -157 -138 -272 77 -169 381 -83 381 107 0
81 -45 141 -124 164 -58 17 -57 17 -119 1z m73 -67 c13 -10 13 -10 -1 -6 -21
7 -100 -47 -117 -80 -15 -28 -9 -85 11 -101 10 -8 12 0 12 36 -1 45 20 102 38
102 4 0 6 -4 3 -8 -3 -5 8 -6 25 -4 18 3 29 10 29 20 0 12 -3 13 -12 4 -7 -7
-19 -12 -27 -12 -11 0 -10 4 5 15 44 33 124 0 124 -51 0 -21 -4 -24 -20 -19
-28 9 -49 -37 -29 -61 13 -16 12 -16 -7 -6 -19 10 -21 9 -20 -10 2 -39 -95
-46 -137 -10 -9 8 -22 32 -28 53 -10 31 -9 43 7 75 29 57 105 91 144 63z m66
-146 c-10 -10 -19 5 -10 18 6 11 8 11 12 0 2 -7 1 -15 -2 -18z"/>
<path d="M1526 5244 c-18 -17 -20 -32 -7 -52 6 -10 10 -10 20 2 8 10 9 16 1
21 -16 10 -12 28 5 21 8 -3 15 -1 15 4 0 17 -19 20 -34 4z"/>
<path d="M1480 5130 c0 -5 5 -10 10 -10 6 0 10 5 10 10 0 6 -4 10 -10 10 -5 0
-10 -4 -10 -10z"/>
<path d="M1762 5298 c-19 -19 -14 -42 13 -68 l25 -24 23 22 c20 21 21 24 7 50
-17 30 -49 39 -68 20z"/>
<path d="M1126 5221 c-11 -16 27 -22 43 -6 14 13 13 15 -11 15 -15 0 -29 -4
-32 -9z"/>
<path d="M1073 5085 c-11 -8 -28 -36 -37 -62 -45 -132 17 -196 117 -119 24 19
54 39 66 45 33 18 25 50 -28 102 -51 52 -80 60 -118 34z"/>
<path d="M1377 5611 c-4 -17 -3 -21 5 -13 5 5 8 16 6 23 -3 8 -7 3 -11 -10z"/>
<path d="M8386 6184 c-29 -29 -10 -94 27 -94 27 0 57 32 57 60 0 45 -52 66
-84 34z"/>
<path d="M8705 5659 c-92 -13 -214 -78 -269 -142 -114 -134 -161 -255 -154
-400 3 -80 9 -102 38 -162 71 -146 234 -261 405 -285 111 -16 187 -2 302 55
265 131 359 419 220 678 -108 203 -295 291 -542 256z m217 -88 c105 -28 109
-30 172 -91 50 -48 72 -80 98 -139 30 -70 33 -84 33 -181 0 -102 -1 -107 -39
-184 -30 -59 -52 -88 -90 -118 -158 -125 -344 -151 -501 -70 -65 33 -168 135
-197 194 -39 78 -45 177 -18 267 25 86 89 200 135 239 67 59 180 103 285 111
8 0 63 -12 122 -28z"/>
<path d="M745 4544 c-23 -23 -16 -68 12 -72 31 -5 59 39 43 67 -13 25 -33 27
-55 5z"/>
<path d="M9176 4394 c-29 -28 -13 -74 24 -74 19 0 50 30 50 48 0 15 -29 42
-45 42 -7 0 -21 -7 -29 -16z"/>
<path d="M1349 4363 c-9 -2 -21 -16 -28 -30 -9 -21 -9 -30 4 -49 19 -29 48
-31 75 -4 26 26 25 55 -2 74 -12 9 -25 15 -28 15 -3 -1 -12 -3 -21 -6z"/>
<path d="M8784 4190 c-24 -10 -84 -76 -84 -94 0 -29 24 -82 49 -109 23 -26 31
-28 74 -24 60 5 87 30 103 94 l12 48 -40 37 c-46 42 -84 58 -114 48z m40 -96
c10 -26 7 -44 -7 -44 -23 0 -37 21 -26 42 12 22 25 23 33 2z"/>
<path d="M1126 3945 c-13 -14 -27 -39 -32 -57 -6 -21 -22 -38 -49 -53 -22 -13
-45 -33 -52 -45 -15 -31 1 -74 38 -101 22 -16 29 -28 29 -54 0 -22 8 -41 22
-55 26 -24 40 -25 78 -5 21 11 36 12 55 5 72 -27 135 5 135 70 0 22 11 59 25
86 25 46 25 48 7 78 -11 19 -32 35 -52 42 -21 7 -43 25 -57 47 -44 70 -105 88
-147 42z m84 -100 c15 -25 31 -36 56 -41 37 -7 46 -32 19 -54 -10 -8 -15 -30
-15 -62 0 -44 -2 -49 -17 -43 -32 14 -80 17 -87 6 -15 -24 -36 -11 -36 22 0
17 -9 43 -20 57 -29 37 -25 59 10 67 22 4 32 13 36 32 14 64 23 66 54 16z"/>
<path d="M8592 3644 c-19 -21 -11 -74 14 -91 18 -12 24 -11 47 8 31 24 35 59
9 82 -23 21 -53 21 -70 1z"/>
<path d="M3055 3531 c-74 -27 -319 -126 -495 -201 -41 -17 -92 -38 -114 -46
-39 -14 -143 -60 -271 -119 -124 -57 -296 -131 -470 -203 -93 -39 -217 -91
-275 -117 -58 -26 -152 -63 -210 -82 -58 -20 -123 -42 -145 -49 -95 -33 -155
-115 -163 -225 -7 -99 25 -207 112 -384 152 -308 359 -530 630 -675 174 -94
426 -170 564 -170 191 0 316 119 317 301 0 69 5 87 60 218 58 138 61 142 85
134 41 -12 105 -7 134 12 37 24 76 94 76 137 0 46 -36 98 -83 121 l-37 17 16
38 c9 20 33 78 54 127 21 50 59 140 85 200 25 61 60 144 77 185 36 86 66 140
78 140 5 0 16 -25 25 -55 12 -43 22 -58 47 -71 45 -23 103 -13 142 25 27 27
31 39 34 100 5 86 -18 140 -92 219 l-50 53 18 47 c63 166 80 231 70 268 -20
81 -96 100 -219 55z m125 -104 c0 -12 -29 -85 -93 -232 -276 -636 -407 -958
-407 -1001 0 -37 34 -84 60 -84 37 0 50 -12 50 -46 0 -54 -57 -78 -91 -38 -18
22 -73 17 -97 -9 -12 -12 -34 -54 -50 -92 -42 -100 -93 -205 -104 -211 -5 -3
-15 -1 -22 6 -8 6 -72 18 -143 26 -282 35 -477 118 -619 266 -105 110 -163
193 -229 330 -53 109 -121 318 -112 342 3 6 33 23 68 38 35 15 118 50 184 78
66 29 181 76 255 106 140 57 192 80 475 212 94 44 190 87 215 95 87 30 186 69
315 124 265 114 345 135 345 90z m-1 -383 c60 -50 79 -182 27 -192 -26 -5 -36
15 -36 70 0 53 -17 70 -63 61 -22 -4 -27 -2 -27 14 0 25 37 73 55 73 7 0 27
-12 44 -26z m-1934 -461 c43 -157 59 -200 110 -300 102 -203 276 -397 431
-481 145 -79 271 -119 468 -148 l39 -5 -31 -32 c-71 -75 -94 -154 -63 -215 12
-23 21 -43 21 -45 0 -10 -138 17 -245 49 -230 68 -393 163 -584 339 -141 131
-294 380 -356 578 -35 113 -33 211 5 252 40 43 87 62 157 64 31 1 33 -1 48
-56z m1169 -989 c40 -39 27 -111 -31 -175 -20 -22 -40 -39 -45 -39 -5 0 -20
11 -33 25 -45 44 -30 127 34 182 31 27 54 29 75 7z"/>
<path d="M2893 3282 c-6 -4 -17 -20 -22 -35 -9 -24 -8 -31 14 -53 30 -30 40
-30 70 0 27 27 24 58 -8 81 -24 17 -36 18 -54 7z"/>
<path d="M2502 3180 c-74 -17 -154 -99 -183 -187 -6 -19 -9 -65 -7 -101 5
-103 53 -179 143 -230 48 -27 196 -24 260 6 223 102 220 430 -4 507 -47 16
-153 18 -209 5z m130 -80 c20 -6 47 -19 59 -29 l22 -18 -27 -7 c-16 -4 -31 -5
-34 -1 -3 3 2 5 11 5 10 0 17 5 17 10 0 19 -30 23 -49 6 -10 -9 -35 -16 -56
-16 -48 0 -99 -31 -116 -73 -8 -17 -14 -62 -14 -98 0 -53 4 -72 20 -89 l20
-23 -22 12 c-33 17 -63 82 -63 136 0 77 47 148 120 179 42 18 63 19 112 6z
m117 -88 c36 -54 40 -127 9 -171 -26 -38 -95 -97 -103 -89 -3 3 9 15 27 27 21
13 27 21 16 21 -9 0 -20 -4 -23 -10 -3 -5 -14 -10 -23 -10 -15 0 -15 2 -2 10
10 6 2 8 -25 3 -22 -3 -49 -13 -59 -22 -11 -9 -16 -10 -12 -3 5 8 1 19 -10 27
-16 11 -17 16 -6 27 10 10 14 10 21 0 6 -9 15 -10 39 -1 23 8 41 8 68 -1 52
-18 85 1 78 44 -3 25 -3 27 5 11 7 -14 10 -15 10 -5 1 8 4 26 6 40 5 22 4 22
-4 5 l-10 -20 -1 20 -1 20 -9 -20 c-8 -18 -9 -18 -9 -2 -1 11 -6 15 -13 11 -7
-4 -8 -3 -4 5 4 6 3 17 -2 24 -18 23 -25 79 -11 88 21 13 22 12 48 -29z m-64
-132 c4 -6 10 -8 15 -5 5 3 14 -4 20 -16 7 -12 8 -20 3 -17 -51 25 -63 33 -63
40 0 11 18 10 25 -2z m-62 -137 c-7 -2 -19 -2 -25 0 -7 3 -2 5 12 5 14 0 19
-2 13 -5z"/>
<path d="M2735 2979 c-4 -6 -5 -12 -2 -15 2 -3 7 2 10 11 7 17 1 20 -8 4z"/>
<path d="M2034 2864 c-22 -28 -31 -45 -22 -41 10 3 20 2 23 -3 4 -6 23 -10 44
-10 34 0 40 4 51 31 16 38 4 63 -32 67 -19 2 -33 -8 -64 -44z"/>
<path d="M1698 2727 c-41 -33 -98 -125 -98 -157 0 -41 21 -53 79 -45 28 4 55
13 62 21 6 8 17 14 23 14 25 0 96 64 96 87 0 83 -99 132 -162 80z"/>
<path d="M1474 2646 c-3 -8 -4 -29 -2 -48 4 -44 37 -50 67 -12 25 32 26 38 5
58 -19 20 -63 21 -70 2z"/>
<path d="M2295 2626 c-24 -17 -13 -62 16 -69 35 -9 50 3 47 36 -4 36 -36 53
-63 33z"/>
<path d="M1965 2587 c-69 -18 -103 -38 -152 -89 -50 -52 -73 -110 -73 -189 0
-114 54 -205 149 -254 109 -55 206 -54 306 2 120 67 170 244 107 375 -29 58
-93 125 -138 144 -49 21 -141 26 -199 11z m150 -106 c53 -30 86 -61 66 -61 -6
0 -11 4 -11 10 0 14 -61 44 -69 33 -3 -4 -19 -10 -35 -11 -20 -3 -26 0 -21 9
6 9 2 10 -16 5 -13 -4 -32 -9 -42 -11 -35 -8 -82 -41 -94 -66 -23 -47 -32
-141 -18 -176 11 -27 11 -31 0 -27 -8 3 -22 26 -31 50 -33 87 4 202 78 240 80
42 127 43 193 5z m15 -75 c0 -2 -7 -7 -16 -10 -8 -3 -12 -2 -9 4 6 10 25 14
25 6z m87 -48 c-3 -8 -6 -5 -6 6 -1 11 2 17 5 13 3 -3 4 -12 1 -19z"/>
<path d="M2065 2470 c-3 -5 -1 -10 4 -10 6 0 11 5 11 10 0 6 -2 10 -4 10 -3 0
-8 -4 -11 -10z"/>
<path d="M2516 2498 c-22 -31 -20 -64 4 -88 25 -25 41 -25 74 1 33 26 33 53 1
84 -30 31 -59 32 -79 3z"/>
<path d="M2407 2127 c-25 -21 -28 -46 -7 -67 26 -26 45 -25 64 1 27 40 -20 95
-57 66z"/>
<path d="M2216 1977 c-20 -15 -24 -70 -7 -91 23 -28 51 -29 77 -5 59 56 -5
144 -70 96z"/>
<path d="M9205 3525 c-28 -27 -32 -53 -12 -77 21 -28 52 -30 81 -7 22 17 26
27 21 48 -6 26 -39 61 -57 61 -5 0 -20 -11 -33 -25z"/>
<path d="M7535 3481 c-98 -18 -180 -85 -214 -175 -28 -75 -29 -177 -2 -230 19
-37 19 -38 0 -70 -11 -19 -37 -87 -59 -152 -22 -66 -43 -126 -46 -134 -20 -48
-142 -395 -184 -520 -62 -190 -242 -747 -265 -820 -13 -41 -40 -128 -61 -193
-31 -99 -36 -124 -28 -155 l9 -37 75 0 75 0 7 -106 c7 -115 15 -140 53 -165
21 -14 30 -14 55 -4 33 14 43 36 64 151 17 86 33 132 43 126 5 -3 17 -29 28
-57 23 -59 51 -83 92 -78 35 4 73 70 103 180 35 129 44 144 108 180 31 18 59
33 61 33 1 0 10 -20 18 -45 31 -95 102 -123 164 -64 44 42 60 78 67 152 l7 66
236 121 c130 67 272 142 315 168 93 54 154 81 154 68 0 -6 -18 -36 -40 -67
-32 -46 -40 -66 -40 -102 0 -60 42 -102 104 -102 153 0 281 263 175 360 l-30
27 228 112 c125 62 245 119 266 127 136 48 214 120 243 222 22 75 13 134 -35
238 -90 192 -290 423 -505 583 -232 173 -594 312 -911 350 -127 15 -283 21
-330 12z m367 -116 c173 -29 224 -41 378 -94 145 -49 215 -81 310 -139 180
-111 346 -266 487 -455 100 -135 101 -137 63 -137 -17 0 -46 -6 -64 -14 -53
-22 -135 -135 -137 -188 0 -17 -7 -10 -27 29 -159 307 -364 500 -656 619 -196
80 -439 123 -697 124 -133 0 -138 3 -147 75 -8 80 31 152 103 189 46 24 212
21 387 -9z m-130 -360 c342 -40 551 -121 765 -298 115 -94 213 -224 295 -389
21 -44 57 -99 78 -122 22 -24 40 -48 40 -54 0 -6 -80 -52 -177 -103 -240 -124
-305 -160 -323 -174 -8 -7 -58 -34 -110 -60 -52 -26 -99 -50 -105 -55 -15 -12
-463 -250 -472 -251 -5 0 -39 -21 -78 -47 l-70 -47 -3 -65 c-3 -85 -8 -106
-28 -114 -28 -11 -44 13 -44 64 0 58 -16 75 -62 65 -58 -13 -175 -74 -202
-106 -14 -16 -40 -75 -57 -129 -31 -98 -56 -145 -65 -125 -39 80 -53 102 -76
115 -25 13 -31 13 -55 0 -39 -21 -61 -73 -69 -160 -11 -120 -44 -133 -44 -18
0 82 -4 88 -60 88 -71 0 -77 12 -56 116 9 47 59 212 110 367 115 344 301 896
311 920 12 30 22 19 28 -32 6 -54 34 -116 64 -143 61 -56 179 -73 284 -42 70
21 141 90 160 154 22 79 16 171 -16 235 -49 101 -165 159 -268 135 -61 -15
-123 -44 -155 -73 l-22 -21 14 45 c7 24 27 78 44 119 16 41 38 101 48 133 16
52 21 58 53 67 82 22 164 24 323 5z m-215 -386 c47 -26 69 -47 28 -27 -56 28
-82 29 -126 7 -79 -42 -124 -143 -99 -228 12 -44 6 -50 -16 -15 -11 16 -20 52
-22 89 -5 82 16 128 77 166 54 35 105 37 158 8z m-42 -48 c-3 -6 -11 -11 -16
-11 -5 0 -4 6 3 14 14 16 24 13 13 -3z m1686 -137 c53 -56 13 -175 -73 -220
-36 -19 -68 -17 -93 4 -29 24 -35 46 -21 73 6 13 17 43 24 66 28 94 110 133
163 77z m-1551 -54 l-11 -25 6 25 c2 14 5 34 6 45 2 19 2 19 6 0 2 -12 -1 -32
-7 -45z m-240 -70 c8 -5 11 -10 5 -10 -5 0 -17 5 -25 10 -8 5 -10 10 -5 10 6
0 17 -5 25 -10z m1128 -553 c20 -15 15 -105 -8 -142 -23 -38 -61 -65 -89 -65
-33 0 -29 23 11 73 43 55 53 84 45 127 -5 24 -4 28 11 23 9 -3 23 -10 30 -16z"/>
<path d="M7691 3296 c-16 -19 -11 -29 8 -17 7 5 12 14 9 21 -3 9 -8 7 -17 -4z"/>
<path d="M7770 2821 c-41 -78 39 -140 83 -63 18 30 18 34 3 57 -21 31 -70 34
-86 6z"/>
<path d="M7949 2789 c-16 -16 -19 -27 -13 -52 9 -42 22 -57 50 -57 51 0 70 95
24 120 -27 14 -37 13 -61 -11z"/>
<path d="M8144 2674 c-54 -19 -119 -76 -147 -128 -31 -59 -31 -192 1 -253 30
-57 86 -111 141 -136 58 -27 156 -28 228 -4 135 47 199 210 142 361 -50 135
-223 210 -365 160z m136 -84 c14 -4 18 -8 10 -9 -31 -2 -137 -60 -157 -85 -31
-39 -41 -157 -17 -194 16 -25 16 -26 0 -13 -10 8 -26 32 -37 52 -68 134 61
294 201 249z"/>
<path d="M8596 2267 c-41 -30 -12 -117 40 -117 46 0 72 63 42 103 -19 23 -60
30 -82 14z"/>
<path d="M7848 2249 c-36 -20 -13 -99 28 -99 8 0 26 11 40 25 20 20 23 29 14
45 -10 19 -40 40 -57 40 -4 0 -16 -5 -25 -11z"/>
<path d="M7216 2074 c-9 -8 -16 -22 -16 -30 0 -15 44 -101 60 -117 12 -14 53
80 46 108 -13 50 -59 71 -90 39z"/>
<path d="M7585 2042 c-70 -34 -137 -100 -160 -156 -41 -97 -10 -243 63 -308
60 -52 115 -71 191 -66 128 9 243 96 281 211 27 85 4 205 -53 265 -40 44 -116
75 -192 79 -62 4 -77 1 -130 -25z m167 -80 c7 -7 -5 -13 -38 -18 -57 -8 -127
-52 -155 -97 -16 -26 -19 -46 -17 -99 2 -38 1 -68 -3 -68 -4 0 -14 16 -24 36
-53 113 60 274 183 261 24 -3 48 -9 54 -15z"/>
<path d="M8330 2020 c0 -17 9 -39 21 -51 18 -18 23 -19 42 -6 26 18 24 45 -5
70 -33 28 -58 22 -58 -13z"/>
<path d="M8107 1992 c-23 -26 -21 -58 5 -76 45 -32 106 -7 92 38 -16 54 -66
73 -97 38z"/>
<path d="M7091 1657 c-54 -19 -81 -67 -98 -173 -7 -46 28 -119 66 -138 27 -14
35 -15 64 -2 45 18 135 84 147 106 40 75 -45 222 -127 219 -10 0 -33 -5 -52
-12z"/>
<path d="M1507 3462 c-33 -36 -12 -102 32 -102 19 0 54 34 64 62 4 11 -3 24
-20 38 -32 25 -55 25 -76 2z"/>
<path d="M5945 2016 c-11 -16 -15 -35 -11 -51 5 -20 12 -25 40 -25 21 0 40 8
52 21 17 19 17 23 3 47 -21 38 -62 41 -84 8z"/>
<path d="M5497 1877 c-3 -8 -19 -19 -35 -25 -25 -8 -37 -7 -66 9 -45 24 -46
24 -46 -5 0 -60 83 -104 121 -63 19 21 44 85 36 93 -2 3 -7 -2 -10 -9z"/>
<path d="M3008 1765 c-10 -21 -9 -29 5 -43 13 -13 21 -14 35 -6 24 16 27 43 5
59 -25 20 -32 18 -45 -10z"/>
<path d="M3216 1549 c-15 -12 -43 -51 -62 -88 -19 -36 -44 -81 -56 -100 -21
-33 -21 -35 -4 -99 21 -78 38 -106 90 -143 47 -34 73 -36 128 -8 22 11 65 23
94 26 64 7 79 21 69 65 -16 72 -11 113 18 147 16 19 27 45 27 62 0 29 -1 29
-55 29 -55 0 -55 0 -91 50 -56 79 -108 98 -158 59z m93 -124 c23 -25 48 -45
55 -45 8 0 22 -3 30 -6 15 -6 14 -10 -4 -42 -17 -29 -19 -40 -10 -65 5 -16 10
-31 10 -32 0 -2 -16 -6 -36 -10 -21 -3 -48 -14 -61 -22 -23 -15 -26 -14 -57
16 -18 17 -42 51 -54 74 l-21 42 32 11 c28 9 34 18 47 67 8 31 17 57 21 57 3
0 25 -20 48 -45z"/>
<path d="M3952 1328 c-16 -16 -15 -43 2 -57 21 -18 66 6 66 35 0 32 -44 46
-68 22z"/>
<path d="M5175 1305 c-31 -30 -32 -68 -3 -95 28 -25 62 -26 88 0 29 29 26 74
-6 99 -34 27 -50 26 -79 -4z"/>
<path d="M1394 1271 c-40 -25 -64 -58 -64 -91 0 -33 17 -50 50 -50 29 0 49 18
74 67 21 42 20 70 -3 83 -25 13 -20 13 -57 -9z"/>
<path d="M6015 1209 c-44 -39 -54 -73 -30 -99 10 -11 22 -20 28 -20 21 0 70
45 84 78 13 31 12 36 -3 53 -24 26 -38 24 -79 -12z"/>
<path d="M4411 1204 c-26 -33 -26 -49 -1 -74 26 -26 52 -25 78 3 26 28 27 40
6 72 -21 33 -57 32 -83 -1z"/>
<path d="M6584 855 c-29 -44 2 -84 51 -65 25 10 42 48 31 75 -9 25 -63 19 -82
-10z"/>
</g>
</svg>
